<?xml version="1.0" standalone="no"?>
<!DOCTYPE svg PUBLIC "-//W3C//DTD SVG 20010904//EN"
 "http://www.w3.org/TR/2001/REC-SVG-20010904/DTD/svg10.dtd">
<svg version="1.0" xmlns="http://www.w3.org/2000/svg"
 width="200.000000pt" height="252.000000pt" viewBox="0 0 200.000000 252.000000"
 preserveAspectRatio="xMidYMid meet">

<g transform="translate(0.000000,252.000000) scale(0.100000,-0.100000)"
fill="#000000" stroke="none">
<path d="M695 2414 c-239 -24 -408 -75 -468 -141 -24 -27 -97 -248 -97 -294 0
-48 34 -97 93 -134 26 -16 49 -39 52 -50 2 -11 18 -166 35 -345 80 -856 111
-1160 119 -1182 23 -62 116 -111 273 -145 119 -26 477 -26 596 0 120 26 190
55 234 96 32 30 40 46 48 96 6 33 39 375 75 760 36 385 68 709 71 720 2 11 26
34 52 50 58 38 92 86 92 134 0 46 -73 267 -97 294 -47 51 -164 95 -323 123
-71 12 -173 17 -405 19 -171 2 -328 1 -350 -1z m572 -145 c133 -11 322 -44
337 -59 22 -21 -189 -56 -431 -72 -136 -8 -226 -8 -355 1 -237 15 -443 50
-422 71 14 14 208 49 319 59 147 12 406 13 552 0z m-894 -209 c32 -11 111 -30
175 -42 103 -19 155 -21 437 -22 376 -1 492 12 695 80 12 4 20 -8 32 -45 l16
-51 -41 -24 c-92 -53 -271 -90 -524 -108 -322 -23 -724 29 -860 111 l-32 20
17 50 c9 28 18 51 22 51 3 0 32 -9 63 -20z m129 -315 c300 -64 766 -58 1053
11 20 5 21 4 8 -118 -6 -68 -12 -133 -12 -145 -1 -19 -12 -24 -88 -42 -138
-32 -242 -41 -458 -41 -221 0 -336 10 -467 41 -77 18 -88 23 -89 42 0 12 -6
77 -12 145 -7 67 -12 122 -10 122 1 0 35 -7 75 -15z m163 -1040 c182 -35 533
-30 733 12 40 8 75 13 77 11 1 -1 -6 -86 -16 -188 -10 -102 -18 -193 -19 -203
0 -24 -67 -53 -168 -74 -115 -24 -429 -24 -542 0 -100 22 -170 50 -170 70 0
18 -29 323 -35 366 -5 38 -21 37 140 6z"/>
</g>
</svg>
